<svg width="194" height="62" viewBox="0 0 194 62" fill="none" xmlns="http://www.w3.org/2000/svg">
<path d="M9.4375 14.1875V48H0.65625V14.1875H9.4375ZM0.25 5.4375C0.25 4.08333 0.677083 2.96875 1.53125 2.09375C2.40625 1.19792 3.57292 0.75 5.03125 0.75C6.51042 0.75 7.67708 1.19792 8.53125 2.09375C9.38542 2.96875 9.8125 4.08333 9.8125 5.4375C9.8125 6.77083 9.375 7.88542 8.5 8.78125C7.64583 9.65625 6.5 10.0938 5.0625 10.0938C3.58333 10.0938 2.40625 9.65625 1.53125 8.78125C0.677083 7.88542 0.25 6.77083 0.25 5.4375ZM34.1562 14.1875H42.0938V48C42.0938 51.0833 41.5 53.6042 40.3125 55.5625C39.1458 57.5417 37.5104 58.9896 35.4062 59.9062C33.3229 60.8438 30.8854 61.3125 28.0938 61.3125C27.0312 61.3125 25.8333 61.1667 24.5 60.875C23.1875 60.5833 21.9167 60.1354 20.6875 59.5312C19.4583 58.9479 18.4479 58.2396 17.6562 57.4062L20.625 51.3438C21.4375 52.1562 22.5 52.8438 23.8125 53.4062C25.125 53.9896 26.4167 54.2812 27.6875 54.2812C28.9167 54.2812 29.9375 54.0833 30.75 53.6875C31.5833 53.3125 32.2083 52.6667 32.625 51.75C33.0625 50.8333 33.2812 49.6042 33.2812 48.0625V22.0312L34.1562 14.1875ZM15.2812 32.2812V30.0312C15.2812 27.2812 15.5417 24.875 16.0625 22.8125C16.5833 20.75 17.3333 19.0312 18.3125 17.6562C19.2917 16.2812 20.4896 15.2604 21.9062 14.5938C23.3438 13.9062 24.9479 13.5625 26.7188 13.5625C28.5729 13.5625 30.125 13.9688 31.375 14.7812C32.625 15.5729 33.6354 16.6875 34.4062 18.125C35.1979 19.5625 35.8021 21.2604 36.2188 23.2188C36.6562 25.1771 36.9896 27.3229 37.2188 29.6562V32.9062C36.9896 35.1146 36.6146 37.1771 36.0938 39.0938C35.5938 41.0104 34.9271 42.6771 34.0938 44.0938C33.2604 45.5104 32.2396 46.625 31.0312 47.4375C29.8229 48.2292 28.3646 48.625 26.6562 48.625C24.9062 48.625 23.3229 48.2708 21.9062 47.5625C20.5104 46.8542 19.3125 45.8125 18.3125 44.4375C17.3333 43.0417 16.5833 41.3333 16.0625 39.3125C15.5417 37.2708 15.2812 34.9271 15.2812 32.2812ZM24.0625 30.0312V32.2812C24.0625 33.8646 24.1562 35.2292 24.3438 36.375C24.5521 37.5 24.8646 38.4271 25.2812 39.1562C25.6979 39.8646 26.2292 40.3958 26.875 40.75C27.5417 41.0833 28.3229 41.25 29.2188 41.25C30.4896 41.25 31.5 40.9583 32.25 40.375C33.0208 39.7708 33.5833 38.9479 33.9375 37.9062C34.3125 36.8438 34.5208 35.625 34.5625 34.25V28.3438C34.5417 27.1979 34.4062 26.1667 34.1562 25.25C33.9271 24.3333 33.6042 23.5521 33.1875 22.9062C32.7708 22.2604 32.2292 21.7604 31.5625 21.4062C30.9167 21.0521 30.1562 20.875 29.2812 20.875C28.3854 20.875 27.6146 21.0521 26.9688 21.4062C26.3229 21.7604 25.7812 22.3125 25.3438 23.0625C24.9271 23.7917 24.6042 24.7396 24.375 25.9062C24.1667 27.0521 24.0625 28.4271 24.0625 30.0312ZM75.8438 21.4062V48H67.0625V14.1875H75.2812L75.8438 21.4062ZM74.5312 29.9375L72.1875 30C72.1458 27.4583 72.3854 25.1771 72.9062 23.1562C73.4479 21.1354 74.2083 19.4167 75.1875 18C76.1875 16.5625 77.375 15.4688 78.75 14.7188C80.1458 13.9479 81.6979 13.5625 83.4062 13.5625C84.7188 13.5625 85.9167 13.7917 87 14.25C88.1042 14.7083 89.0521 15.4375 89.8438 16.4375C90.6354 17.4375 91.25 18.7708 91.6875 20.4375C92.125 22.0833 92.3438 24.1042 92.3438 26.5V48H83.5625V26.4375C83.5625 24.9792 83.4167 23.8542 83.125 23.0625C82.8333 22.25 82.3958 21.6875 81.8125 21.375C81.2292 21.0417 80.5 20.875 79.625 20.875C78.7917 20.875 78.0521 21.1146 77.4062 21.5938C76.7604 22.0521 76.2188 22.6875 75.7812 23.5C75.3646 24.3125 75.0417 25.2708 74.8125 26.375C74.6042 27.4792 74.5104 28.6667 74.5312 29.9375ZM112.375 48.625C110.062 48.625 108.01 48.2708 106.219 47.5625C104.448 46.8542 102.948 45.8333 101.719 44.5C100.49 43.1458 99.5521 41.5104 98.9062 39.5938C98.2604 37.6771 97.9375 35.4896 97.9375 33.0312V30.25C97.9375 27.5 98.25 25.0938 98.875 23.0312C99.5 20.9479 100.385 19.1979 101.531 17.7812C102.677 16.3646 104.083 15.3125 105.75 14.625C107.438 13.9167 109.344 13.5625 111.469 13.5625C113.594 13.5625 115.458 13.9167 117.062 14.625C118.688 15.3125 120.031 16.3542 121.094 17.75C122.156 19.125 122.958 20.8333 123.5 22.875C124.042 24.9167 124.312 27.2917 124.312 30V34H101.656V27.8438H115.719V27.0625C115.719 25.6875 115.573 24.5417 115.281 23.625C114.99 22.6875 114.531 21.9896 113.906 21.5312C113.281 21.0729 112.448 20.8438 111.406 20.8438C110.531 20.8438 109.792 21.0208 109.188 21.375C108.583 21.7292 108.104 22.2812 107.75 23.0312C107.396 23.7812 107.135 24.7604 106.969 25.9688C106.802 27.1562 106.719 28.5833 106.719 30.25V33.0312C106.719 34.5938 106.854 35.9062 107.125 36.9688C107.396 38.0104 107.792 38.8646 108.312 39.5312C108.854 40.1771 109.51 40.6458 110.281 40.9375C111.052 41.2083 111.948 41.3438 112.969 41.3438C114.51 41.3438 115.896 41.0729 117.125 40.5312C118.375 39.9688 119.438 39.2083 120.312 38.25L123.812 43.5625C123.208 44.3542 122.375 45.1458 121.312 45.9375C120.25 46.7292 118.979 47.375 117.5 47.875C116.021 48.375 114.312 48.625 112.375 48.625ZM137.312 39.0938L143.219 14.1875H148.719L147.375 24.3125L141.562 48H136.969L137.312 39.0938ZM135.625 14.1875L139.656 39.0312L139.625 48H134.25L127.219 14.1875H135.625ZM153.156 38.625L157.062 14.1875H165.531L158.469 48H153.094L153.156 38.625ZM149.469 14.1875L155.375 38.9062L155.781 48H151.188L145.375 24.375L144.062 14.1875H149.469ZM184.938 38.875C184.938 38.2917 184.74 37.7708 184.344 37.3125C183.948 36.8542 183.323 36.3854 182.469 35.9062C181.615 35.4062 180.479 34.8542 179.062 34.25C177.521 33.625 176.156 32.9792 174.969 32.3125C173.781 31.6458 172.771 30.9062 171.938 30.0938C171.125 29.2812 170.51 28.3542 170.094 27.3125C169.677 26.2708 169.469 25.0833 169.469 23.75C169.469 22.3125 169.729 20.9896 170.25 19.7812C170.792 18.5521 171.562 17.4792 172.562 16.5625C173.562 15.625 174.781 14.8958 176.219 14.375C177.677 13.8333 179.312 13.5625 181.125 13.5625C183.667 13.5625 185.844 14.0104 187.656 14.9062C189.49 15.7812 190.896 17.0104 191.875 18.5938C192.854 20.1771 193.344 22.0208 193.344 24.125H184.594C184.594 23.375 184.479 22.7083 184.25 22.125C184.021 21.5208 183.646 21.0521 183.125 20.7188C182.625 20.3854 181.948 20.2188 181.094 20.2188C180.469 20.2188 179.906 20.3542 179.406 20.625C178.927 20.8958 178.542 21.2604 178.25 21.7188C177.979 22.1562 177.844 22.6771 177.844 23.2812C177.844 23.7396 177.938 24.1458 178.125 24.5C178.333 24.8542 178.656 25.1979 179.094 25.5312C179.531 25.8646 180.115 26.2188 180.844 26.5938C181.594 26.9479 182.51 27.3438 183.594 27.7812C185.844 28.6146 187.688 29.5104 189.125 30.4688C190.583 31.4271 191.667 32.5521 192.375 33.8438C193.083 35.1146 193.438 36.6875 193.438 38.5625C193.438 40.0625 193.146 41.4271 192.562 42.6562C192 43.8854 191.177 44.9479 190.094 45.8438C189.01 46.7396 187.708 47.4271 186.188 47.9062C184.688 48.3854 183.01 48.625 181.156 48.625C178.427 48.625 176.125 48.0833 174.25 47C172.375 45.9167 170.958 44.5312 170 42.8438C169.042 41.1354 168.562 39.3646 168.562 37.5312H176.875C176.917 38.6562 177.125 39.5417 177.5 40.1875C177.896 40.8125 178.427 41.25 179.094 41.5C179.76 41.75 180.5 41.875 181.312 41.875C182.125 41.875 182.792 41.7708 183.312 41.5625C183.854 41.3333 184.26 40.9896 184.531 40.5312C184.802 40.0521 184.938 39.5 184.938 38.875Z" fill="#A8A8B3"/>
<path d="M49.3438 43.5312C49.3438 42.1562 49.8021 41.0104 50.7188 40.0938C51.6354 39.1562 52.875 38.6875 54.4375 38.6875C56 38.6875 57.2396 39.1562 58.1562 40.0938C59.0729 41.0104 59.5312 42.1562 59.5312 43.5312C59.5312 44.9062 59.0729 46.0521 58.1562 46.9688C57.2396 47.8854 56 48.3438 54.4375 48.3438C52.875 48.3438 51.6354 47.8854 50.7188 46.9688C49.8021 46.0521 49.3438 44.9062 49.3438 43.5312Z" fill="#219653"/>
</svg>
