<svg width="827" height="230" viewBox="0 0 827 230" fill="none" xmlns="http://www.w3.org/2000/svg">
<g filter="url(#filter0_ddddd_0_6)">
<rect x="23" y="4" width="781" height="146" rx="73" fill="#202024"/>
<path fill-rule="evenodd" clip-rule="evenodd" d="M196.05 59.5397C195.356 60.2139 195.019 61.0666 195.019 62.0977C195.019 63.1486 195.376 64.0211 196.05 64.6754C196.764 65.3496 197.696 65.6867 198.865 65.6867C200.035 65.6867 200.967 65.3496 201.681 64.6754C202.395 64.0012 202.752 63.1486 202.752 62.0977C202.752 61.0666 202.395 60.2139 201.701 59.5397C201.007 58.8655 200.055 58.5284 198.885 58.5284C197.696 58.5284 196.744 58.8655 196.05 59.5397ZM195.435 94.637H202.355V68.78H195.435V94.637ZM209.136 71.9526C207.252 74.3717 206.3 77.5642 206.3 81.53H206.32V81.8274C206.32 85.8329 207.272 89.065 209.195 91.4841C211.119 93.9231 213.617 95.1327 216.73 95.1327C219.328 95.1327 221.43 94.2404 223.016 92.4359V93.8239C223.016 95.6284 222.501 97.0164 221.489 97.988C220.458 98.9597 219.031 99.4554 217.206 99.4554C214.747 99.4554 212.665 98.4837 210.94 96.5603L207.887 100.764C208.819 101.974 210.167 102.945 211.971 103.699C213.756 104.452 215.6 104.829 217.504 104.829C220.002 104.829 222.183 104.393 224.047 103.52C225.911 102.648 227.359 101.359 228.39 99.6933C229.421 98.0079 229.936 96.0448 229.936 93.7843V68.7998H223.671L223.393 71.2387C221.807 69.2955 219.606 68.3239 216.77 68.3239C213.558 68.3239 211.02 69.5334 209.136 71.9526ZM214.609 87.5381C213.677 86.2096 213.201 84.3655 213.201 82.0257C213.201 79.3488 213.677 77.3064 214.628 75.9778C215.58 74.6096 216.869 73.9355 218.535 73.9355C220.577 73.9355 222.064 74.7088 222.996 76.2951V87.1812C222.084 88.7477 220.577 89.5409 218.475 89.5409C216.829 89.5409 215.541 88.8667 214.609 87.5381ZM240.844 68.7803L241.062 71.7745C242.906 69.4744 245.385 68.3044 248.498 68.3044C251.235 68.3044 253.277 69.1174 254.606 70.7236C255.934 72.3297 256.628 74.729 256.668 77.9413V94.6374H249.767V78.1C249.767 76.6326 249.45 75.5817 248.816 74.9075C248.181 74.2531 247.11 73.916 245.643 73.916C243.7 73.916 242.252 74.7489 241.281 76.3947V94.6175H234.38V68.7803H240.844ZM262.139 59.5397C261.445 60.2139 261.108 61.0666 261.108 62.0977C261.108 63.1486 261.465 64.0211 262.139 64.6754C262.853 65.3496 263.785 65.6867 264.954 65.6867C266.124 65.6867 267.056 65.3496 267.77 64.6754C268.484 64.0012 268.841 63.1486 268.841 62.0977C268.841 61.0666 268.484 60.2139 267.79 59.5397C267.096 58.8655 266.144 58.5284 264.974 58.5284C263.785 58.5284 262.833 58.8655 262.139 59.5397ZM261.524 94.637H268.444V68.78H261.524V94.637ZM281.671 62.4547V68.7801H286.093V73.8365H281.671V86.7452C281.671 87.697 281.85 88.391 282.226 88.8074C282.583 89.2238 283.297 89.4221 284.328 89.4221C285.102 89.4221 285.776 89.3626 286.351 89.2635V94.4983C285.003 94.9147 283.595 95.113 282.167 95.113C277.329 95.113 274.85 92.6741 274.771 87.7763V73.8563H271.003V68.7999H274.771V62.4547H281.671ZM291.824 91.6234C294.203 93.9434 297.297 95.1133 301.084 95.1133C303.245 95.1133 305.208 94.6969 306.953 93.8641C308.718 93.0511 310.126 91.901 311.157 90.4337L307.766 86.6265C306.279 88.5499 304.197 89.5215 301.54 89.5215C299.815 89.5215 298.407 89.006 297.277 87.9947C296.147 86.9636 295.472 85.6152 295.254 83.9297H311.712V81.114C311.712 77.0293 310.681 73.8566 308.659 71.6358C306.636 69.3951 303.84 68.2847 300.311 68.2847C297.971 68.2847 295.869 68.8399 294.025 69.9503C292.181 71.0607 290.773 72.6471 289.762 74.6894C288.75 76.7318 288.255 79.0518 288.255 81.6494V82.3236C288.255 86.2101 289.444 89.3034 291.824 91.6234ZM296.979 75.2645C297.832 74.3325 298.942 73.8764 300.311 73.8764C301.758 73.8764 302.888 74.2929 303.682 75.1257C304.495 75.9783 304.891 77.1681 304.931 78.6949V79.2501H295.334C295.591 77.525 296.127 76.1964 296.979 75.2645Z" fill="white"/>
<path opacity="0.5" d="M159.309 46.4864L141.683 112.299C141.593 112.598 141.235 112.688 141.026 112.478L129.225 100.678L138.068 67.6971C138.158 67.3983 137.889 67.1294 137.59 67.2191L104.609 76.0618L92.8685 64.3213C92.6594 64.1122 92.749 63.7537 93.0478 63.664L158.831 46.0084C159.129 45.9487 159.398 46.2175 159.309 46.4864Z" fill="#219653"/>
<path opacity="0.5" d="M129.225 100.679L124.685 117.707C124.595 118.006 124.236 118.095 124.027 117.886L87.4016 81.2902C87.1924 81.0811 87.2821 80.7226 87.5808 80.633L104.609 76.0623L129.225 100.679Z" fill="#219653"/>
<path d="M138.068 67.6969L129.226 100.678L104.609 76.0617L137.59 67.2189C137.889 67.1293 138.158 67.3982 138.068 67.6969Z" fill="#219653"/>
<g clip-path="url(#clip0_0_6)">
<path d="M369.054 63.2037H356.744V99.6455H348.464V63.2037H336.319V55.9034H369.054V63.2037ZM388.237 75.2809C387.152 75.1207 386.195 75.0406 385.367 75.0406C382.349 75.0406 380.371 76.1521 379.432 78.3753V99.6455H371.456V67.1394H378.991L379.211 71.0148C380.812 68.0306 383.03 66.5385 385.863 66.5385C386.747 66.5385 387.575 66.6687 388.348 66.9291L388.237 75.2809ZM400.52 99.6455H392.515V67.1394H400.52V99.6455ZM392.046 58.7274C392.046 57.4256 392.442 56.354 393.233 55.5129C394.043 54.6717 395.137 54.2511 396.518 54.2511C397.879 54.2511 398.965 54.6717 399.775 55.5129C400.584 56.354 400.989 57.4256 400.989 58.7274C400.989 60.0493 400.575 61.1308 399.747 61.972C398.937 62.8132 397.861 63.2338 396.518 63.2338C395.174 63.2338 394.089 62.8132 393.261 61.972C392.451 61.1308 392.046 60.0493 392.046 58.7274ZM415.535 99.6455H407.531V53.5H415.535V99.6455ZM429.915 70.6844C432.031 67.9205 434.69 66.5385 437.892 66.5385C444.369 66.5385 447.654 70.6343 447.746 78.8259V99.6455H439.769V79.0662C439.769 77.2036 439.401 75.8317 438.665 74.9504C437.929 74.0492 436.705 73.5985 434.994 73.5985C432.657 73.5985 430.964 74.5799 429.915 76.5427V99.6455H421.939V53.5H429.915V70.6844ZM471.069 99.6455C470.701 98.8644 470.434 97.8928 470.268 96.7315C468.336 99.0746 465.825 100.246 462.733 100.246C459.808 100.246 457.379 99.325 455.446 97.4826C453.533 95.6398 452.576 93.3165 452.576 90.5125C452.576 87.0676 453.744 84.4239 456.081 82.5813C458.437 80.7386 461.832 79.8073 466.266 79.7873H469.937V77.9247C469.937 76.4225 469.578 75.2208 468.861 74.3195C468.162 73.4183 467.048 72.9676 465.521 72.9676C464.178 72.9676 463.12 73.3181 462.347 74.0191C461.593 74.7201 461.215 75.6815 461.215 76.9032H453.238C453.238 75.0205 453.772 73.2781 454.839 71.6758C455.907 70.0735 457.416 68.8217 459.366 67.9205C461.316 66.9991 463.506 66.5385 465.935 66.5385C469.615 66.5385 472.532 67.5499 474.685 69.5728C476.856 71.5756 477.942 74.3997 477.942 78.0448V92.1348C477.96 95.2192 478.356 97.5527 479.128 99.1349V99.6455H471.069ZM464.472 93.6069C465.65 93.6069 466.736 93.3265 467.729 92.7657C468.723 92.1849 469.459 91.4138 469.937 90.4524V84.8645H466.957C462.963 84.8645 460.838 86.3666 460.58 89.3709L460.553 89.8816C460.553 90.9631 460.903 91.8544 461.602 92.5554C462.301 93.2564 463.258 93.6069 464.472 93.6069Z" fill="white"/>
<path d="M513.547 83.6327H506.951V99.6454H498.671V55.9034H513.603C518.35 55.9034 522.012 57.055 524.588 59.3583C527.164 61.6616 528.452 64.9162 528.452 69.1222C528.452 72.1064 527.854 74.5999 526.658 76.6028C525.481 78.5856 523.686 80.1678 521.276 81.3495L529.97 99.225V99.6454H521.083L513.547 83.6327ZM506.951 76.3324H513.63C515.71 76.3324 517.32 75.7616 518.461 74.62C519.601 73.4583 520.172 71.8661 520.172 69.8432C520.172 67.7803 519.629 66.1579 518.544 64.9763C517.476 63.7946 515.829 63.2037 513.603 63.2037H506.951V76.3324ZM547.994 100.246C543.615 100.246 540.045 98.7841 537.285 95.8601C534.543 92.9359 533.172 89.0404 533.172 84.1735V83.3323C533.172 80.0677 533.752 77.1536 534.911 74.5899C536.07 72.0062 537.708 70.0234 539.824 68.6415C541.959 67.2395 544.388 66.5385 547.111 66.5385C551.196 66.5385 554.407 67.9405 556.744 70.7445C559.099 73.5484 560.277 77.5241 560.277 82.6714V86.2164H541.259C541.517 88.3394 542.29 90.0418 543.578 91.3236C544.884 92.6054 546.531 93.2464 548.518 93.2464C551.591 93.2464 553.993 92.0347 555.723 89.6112L559.642 94.388C558.446 96.2307 556.826 97.6727 554.784 98.714C552.742 99.7356 550.478 100.246 547.994 100.246ZM547.083 73.5685C545.501 73.5685 544.213 74.1493 543.219 75.3109C542.244 76.4726 541.618 78.1349 541.342 80.298H552.438V79.607C552.401 77.6843 551.923 76.2022 551.003 75.1607C550.082 74.0992 548.776 73.5685 547.083 73.5685ZM582.137 99.6454C581.769 98.8644 581.502 97.8928 581.337 96.7314C579.405 99.0746 576.893 100.246 573.801 100.246C570.876 100.246 568.447 99.325 566.515 97.4826C564.601 95.6398 563.644 93.3165 563.644 90.5125C563.644 87.0676 564.813 84.4239 567.149 82.5812C569.505 80.7386 572.9 79.8073 577.334 79.7873H581.005V77.9247C581.005 76.4225 580.647 75.2208 579.929 74.3195C579.229 73.4183 578.116 72.9676 576.589 72.9676C575.246 72.9676 574.188 73.3181 573.415 74.0191C572.66 74.7201 572.283 75.6815 572.283 76.9032H564.307C564.307 75.0205 564.84 73.2781 565.907 71.6758C566.975 70.0735 568.483 68.8217 570.434 67.9204C572.385 66.9991 574.574 66.5385 577.003 66.5385C580.683 66.5385 583.6 67.5499 585.753 69.5728C587.924 71.5756 589.01 74.3997 589.01 78.0448V92.1348C589.028 95.2192 589.424 97.5527 590.197 99.1349V99.6454H582.137ZM575.54 93.6069C576.718 93.6069 577.804 93.3265 578.797 92.7657C579.791 92.1849 580.527 91.4138 581.005 90.4524V84.8645H578.024C574.031 84.8645 571.906 86.3666 571.648 89.3709L571.621 89.8816C571.621 90.9631 571.97 91.8544 572.67 92.5554C573.369 93.2564 574.326 93.6069 575.54 93.6069ZM607.558 93.2464C609.03 93.2464 610.226 92.8058 611.146 91.9245C612.066 91.0433 612.545 89.8716 612.581 88.4095H620.061C620.043 90.6126 619.491 92.6355 618.405 94.4781C617.32 96.3008 615.829 97.7227 613.934 98.7443C612.057 99.7454 609.978 100.246 607.696 100.246C603.427 100.246 600.06 98.7742 597.594 95.83C595.128 92.8658 593.895 88.78 593.895 83.5726V83.0019C593.895 77.9947 595.119 73.9991 597.566 71.0148C600.014 68.0306 603.372 66.5385 607.641 66.5385C611.376 66.5385 614.366 67.7001 616.611 70.0234C618.875 72.3267 620.024 75.4011 620.061 79.2465H612.581C612.545 77.5641 612.066 76.2022 611.146 75.1607C610.226 74.0992 609.012 73.5685 607.503 73.5685C605.644 73.5685 604.236 74.3095 603.28 75.7916C602.341 77.2537 601.872 79.6371 601.872 82.9417V83.843C601.872 87.1878 602.341 89.5912 603.28 91.0532C604.218 92.5153 605.644 93.2464 607.558 93.2464ZM634.166 59.148V67.1394H639.272V73.5084H634.166V89.7314C634.166 90.9331 634.377 91.7943 634.8 92.3151C635.224 92.8358 636.033 93.0962 637.229 93.0962C638.112 93.0962 638.895 93.0261 639.576 92.8859V99.4651C638.012 99.986 636.401 100.246 634.745 100.246C629.151 100.246 626.299 97.172 626.189 91.0232V73.5084H621.828V67.1394H626.189V59.148H634.166ZM660.442 55.9034H668.723V86.1864C668.723 88.9703 668.152 91.4338 667.011 93.5769C665.889 95.6998 664.297 97.342 662.236 98.5038C660.175 99.6655 657.848 100.246 655.253 100.246C651.002 100.246 647.69 99.0746 645.317 96.7314C642.943 94.3679 641.756 91.0333 641.756 86.7271H650.092C650.092 88.8701 650.506 90.4524 651.334 91.4739C652.162 92.4953 653.468 93.006 655.253 93.006C656.836 93.006 658.096 92.4152 659.034 91.2335C659.973 90.0518 660.442 88.3695 660.442 86.1864V55.9034ZM696.655 88.1692C696.655 86.4667 696.103 85.1649 694.999 84.2636C693.895 83.3423 691.908 82.381 689.037 81.3795C686.166 80.3581 683.894 79.3567 682.22 78.3753C677.656 75.6915 675.374 72.0764 675.374 67.5299C675.374 65.1665 675.982 63.0636 677.196 61.2209C678.429 59.3583 680.186 57.9062 682.468 56.8648C684.768 55.8233 687.344 55.3026 690.196 55.3026C693.067 55.3026 695.625 55.8734 697.87 57.015C700.115 58.1366 701.853 59.7288 703.086 61.7917C704.337 63.8547 704.963 66.198 704.963 68.8217H696.683C696.683 66.8189 696.103 65.2667 694.944 64.1651C693.785 63.0435 692.156 62.4827 690.059 62.4827C688.034 62.4827 686.461 62.9534 685.339 63.8947C684.216 64.8161 683.655 66.0378 683.655 67.5599C683.655 68.982 684.308 70.1736 685.615 71.135C686.939 72.0964 688.881 72.9976 691.438 73.8389C696.149 75.381 699.581 77.2937 701.734 79.577C703.887 81.8602 704.963 84.7042 704.963 88.1091C704.963 91.8945 703.648 94.8687 701.016 97.0318C698.385 99.1746 694.843 100.246 690.39 100.246C687.298 100.246 684.483 99.6356 681.944 98.4136C679.404 97.172 677.463 95.4795 676.12 93.3365C674.795 91.1935 674.132 88.7099 674.132 85.8859H682.44C682.44 90.7128 685.09 93.1262 690.39 93.1262C692.359 93.1262 693.895 92.6956 694.999 91.8344C696.103 90.9531 696.655 89.7314 696.655 88.1692Z" fill="#2AC7E3"/>
</g>
</g>
<defs>
<filter id="filter0_ddddd_0_6" x="0" y="0" width="827" height="230" filterUnits="userSpaceOnUse" color-interpolation-filters="sRGB">
<feFlood flood-opacity="0" result="BackgroundImageFix"/>
<feColorMatrix in="SourceAlpha" type="matrix" values="0 0 0 0 0 0 0 0 0 0 0 0 0 0 0 0 0 0 127 0" result="hardAlpha"/>
<feOffset/>
<feColorMatrix type="matrix" values="0 0 0 0 0 0 0 0 0 0 0 0 0 0 0 0 0 0 0.15 0"/>
<feBlend mode="normal" in2="BackgroundImageFix" result="effect1_dropShadow_0_6"/>
<feColorMatrix in="SourceAlpha" type="matrix" values="0 0 0 0 0 0 0 0 0 0 0 0 0 0 0 0 0 0 127 0" result="hardAlpha"/>
<feOffset dy="4"/>
<feGaussianBlur stdDeviation="4"/>
<feColorMatrix type="matrix" values="0 0 0 0 0 0 0 0 0 0 0 0 0 0 0 0 0 0 0.15 0"/>
<feBlend mode="normal" in2="effect1_dropShadow_0_6" result="effect2_dropShadow_0_6"/>
<feColorMatrix in="SourceAlpha" type="matrix" values="0 0 0 0 0 0 0 0 0 0 0 0 0 0 0 0 0 0 127 0" result="hardAlpha"/>
<feOffset dy="14"/>
<feGaussianBlur stdDeviation="7"/>
<feColorMatrix type="matrix" values="0 0 0 0 0 0 0 0 0 0 0 0 0 0 0 0 0 0 0.13 0"/>
<feBlend mode="normal" in2="effect2_dropShadow_0_6" result="effect3_dropShadow_0_6"/>
<feColorMatrix in="SourceAlpha" type="matrix" values="0 0 0 0 0 0 0 0 0 0 0 0 0 0 0 0 0 0 127 0" result="hardAlpha"/>
<feOffset dy="32"/>
<feGaussianBlur stdDeviation="9.5"/>
<feColorMatrix type="matrix" values="0 0 0 0 0 0 0 0 0 0 0 0 0 0 0 0 0 0 0.08 0"/>
<feBlend mode="normal" in2="effect3_dropShadow_0_6" result="effect4_dropShadow_0_6"/>
<feColorMatrix in="SourceAlpha" type="matrix" values="0 0 0 0 0 0 0 0 0 0 0 0 0 0 0 0 0 0 127 0" result="hardAlpha"/>
<feOffset dy="57"/>
<feGaussianBlur stdDeviation="11.5"/>
<feColorMatrix type="matrix" values="0 0 0 0 0 0 0 0 0 0 0 0 0 0 0 0 0 0 0.02 0"/>
<feBlend mode="normal" in2="effect4_dropShadow_0_6" result="effect5_dropShadow_0_6"/>
<feBlend mode="normal" in="SourceGraphic" in2="effect5_dropShadow_0_6" result="shape"/>
</filter>
<clipPath id="clip0_0_6">
<rect width="369" height="47" fill="white" transform="translate(336 53.5)"/>
</clipPath>
</defs>
</svg>
