<svg width="940" height="110" viewBox="0 0 940 110" fill="none" xmlns="http://www.w3.org/2000/svg">
<path d="M84.2031 22.7109H52.8438V108H31.75V22.7109H0.8125V5.625H84.2031V22.7109ZM133.07 50.9766C130.305 50.6016 127.867 50.4141 125.758 50.4141C118.07 50.4141 113.031 53.0156 110.641 58.2188V108H90.3203V31.9219H109.516L110.078 40.9922C114.156 34.0078 119.805 30.5156 127.023 30.5156C129.273 30.5156 131.383 30.8203 133.352 31.4297L133.07 50.9766ZM164.359 108H143.969V31.9219H164.359V108ZM142.773 12.2344C142.773 9.1875 143.781 6.67969 145.797 4.71094C147.859 2.74219 150.648 1.75781 154.164 1.75781C157.633 1.75781 160.398 2.74219 162.461 4.71094C164.523 6.67969 165.555 9.1875 165.555 12.2344C165.555 15.3281 164.5 17.8594 162.391 19.8281C160.328 21.7969 157.586 22.7812 154.164 22.7812C150.742 22.7812 147.977 21.7969 145.867 19.8281C143.805 17.8594 142.773 15.3281 142.773 12.2344ZM202.609 108H182.219V0H202.609V108ZM239.242 40.2188C244.633 33.75 251.406 30.5156 259.562 30.5156C276.062 30.5156 284.43 40.1016 284.664 59.2734V108H264.344V59.8359C264.344 55.4766 263.406 52.2656 261.531 50.2031C259.656 48.0938 256.539 47.0391 252.18 47.0391C246.227 47.0391 241.914 49.3359 239.242 53.9297V108H218.922V0H239.242V40.2188ZM344.078 108C343.141 106.172 342.461 103.898 342.039 101.18C337.117 106.664 330.719 109.406 322.844 109.406C315.391 109.406 309.203 107.25 304.281 102.938C299.406 98.625 296.969 93.1875 296.969 86.625C296.969 78.5625 299.945 72.375 305.898 68.0625C311.898 63.75 320.547 61.5703 331.844 61.5234H341.195V57.1641C341.195 53.6484 340.281 50.8359 338.453 48.7266C336.672 46.6172 333.836 45.5625 329.945 45.5625C326.523 45.5625 323.828 46.3828 321.859 48.0234C319.938 49.6641 318.977 51.9141 318.977 54.7734H298.656C298.656 50.3672 300.016 46.2891 302.734 42.5391C305.453 38.7891 309.297 35.8594 314.266 33.75C319.234 31.5937 324.812 30.5156 331 30.5156C340.375 30.5156 347.805 32.8828 353.289 37.6172C358.82 42.3047 361.586 48.9141 361.586 57.4453V90.4219C361.633 97.6406 362.641 103.102 364.609 106.805V108H344.078ZM327.273 93.8672C330.273 93.8672 333.039 93.2109 335.57 91.8984C338.102 90.5391 339.977 88.7344 341.195 86.4844V73.4062H333.602C323.43 73.4062 318.016 76.9219 317.359 83.9531L317.289 85.1484C317.289 87.6797 318.18 89.7656 319.961 91.4062C321.742 93.0469 324.18 93.8672 327.273 93.8672Z" fill="#A8A8B3"/>
<path d="M452.289 70.5234H435.484V108H414.391V5.625H452.43C464.523 5.625 473.852 8.32031 480.414 13.7109C486.977 19.1016 490.258 26.7188 490.258 36.5625C490.258 43.5469 488.734 49.3828 485.688 54.0703C482.688 58.7109 478.117 62.4141 471.977 65.1797L494.125 107.016V108H471.484L452.289 70.5234ZM435.484 53.4375H452.5C457.797 53.4375 461.898 52.1016 464.805 49.4297C467.711 46.7109 469.164 42.9844 469.164 38.25C469.164 33.4219 467.781 29.625 465.016 26.8594C462.297 24.0938 458.102 22.7109 452.43 22.7109H435.484V53.4375ZM540.039 109.406C528.883 109.406 519.789 105.984 512.758 99.1406C505.773 92.2969 502.281 83.1797 502.281 71.7891V69.8203C502.281 62.1797 503.758 55.3594 506.711 49.3594C509.664 43.3125 513.836 38.6719 519.227 35.4375C524.664 32.1562 530.852 30.5156 537.789 30.5156C548.195 30.5156 556.375 33.7969 562.328 40.3594C568.328 46.9219 571.328 56.2266 571.328 68.2734V76.5703H522.883C523.539 81.5391 525.508 85.5234 528.789 88.5234C532.117 91.5234 536.312 93.0234 541.375 93.0234C549.203 93.0234 555.32 90.1875 559.727 84.5156L569.711 95.6953C566.664 100.008 562.539 103.383 557.336 105.82C552.133 108.211 546.367 109.406 540.039 109.406ZM537.719 46.9688C533.688 46.9688 530.406 48.3281 527.875 51.0469C525.391 53.7656 523.797 57.6562 523.094 62.7188H551.359V61.1016C551.266 56.6016 550.047 53.1328 547.703 50.6953C545.359 48.2109 542.031 46.9688 537.719 46.9688ZM627.016 108C626.078 106.172 625.398 103.898 624.977 101.18C620.055 106.664 613.656 109.406 605.781 109.406C598.328 109.406 592.141 107.25 587.219 102.938C582.344 98.625 579.906 93.1875 579.906 86.625C579.906 78.5625 582.883 72.375 588.836 68.0625C594.836 63.75 603.484 61.5703 614.781 61.5234H624.133V57.1641C624.133 53.6484 623.219 50.8359 621.391 48.7266C619.609 46.6172 616.773 45.5625 612.883 45.5625C609.461 45.5625 606.766 46.3828 604.797 48.0234C602.875 49.6641 601.914 51.9141 601.914 54.7734H581.594C581.594 50.3672 582.953 46.2891 585.672 42.5391C588.391 38.7891 592.234 35.8594 597.203 33.75C602.172 31.5937 607.75 30.5156 613.938 30.5156C623.312 30.5156 630.742 32.8828 636.227 37.6172C641.758 42.3047 644.523 48.9141 644.523 57.4453V90.4219C644.57 97.6406 645.578 103.102 647.547 106.805V108H627.016ZM610.211 93.8672C613.211 93.8672 615.977 93.2109 618.508 91.8984C621.039 90.5391 622.914 88.7344 624.133 86.4844V73.4062H616.539C606.367 73.4062 600.953 76.9219 600.297 83.9531L600.227 85.1484C600.227 87.6797 601.117 89.7656 602.898 91.4062C604.68 93.0469 607.117 93.8672 610.211 93.8672ZM691.773 93.0234C695.523 93.0234 698.57 91.9922 700.914 89.9297C703.258 87.8672 704.477 85.125 704.57 81.7031H723.625C723.578 86.8594 722.172 91.5938 719.406 95.9062C716.641 100.172 712.844 103.5 708.016 105.891C703.234 108.234 697.938 109.406 692.125 109.406C681.25 109.406 672.672 105.961 666.391 99.0703C660.109 92.1328 656.969 82.5703 656.969 70.3828V69.0469C656.969 57.3281 660.086 47.9766 666.32 40.9922C672.555 34.0078 681.109 30.5156 691.984 30.5156C701.5 30.5156 709.117 33.2344 714.836 38.6719C720.602 44.0625 723.531 51.2578 723.625 60.2578H704.57C704.477 56.3203 703.258 53.1328 700.914 50.6953C698.57 48.2109 695.477 46.9688 691.633 46.9688C686.898 46.9688 683.312 48.7031 680.875 52.1719C678.484 55.5938 677.289 61.1719 677.289 68.9062V71.0156C677.289 78.8438 678.484 84.4688 680.875 87.8906C683.266 91.3125 686.898 93.0234 691.773 93.0234ZM759.555 13.2188V31.9219H772.562V46.8281H759.555V84.7969C759.555 87.6094 760.094 89.625 761.172 90.8438C762.25 92.0625 764.312 92.6719 767.359 92.6719C769.609 92.6719 771.602 92.5078 773.336 92.1797V107.578C769.352 108.797 765.25 109.406 761.031 109.406C746.781 109.406 739.516 102.211 739.234 87.8203V46.8281H728.125V31.9219H739.234V13.2188H759.555ZM826.492 5.625H847.586V76.5C847.586 83.0156 846.133 88.7812 843.227 93.7969C840.367 98.7656 836.312 102.609 831.062 105.328C825.812 108.047 819.883 109.406 813.273 109.406C802.445 109.406 794.008 106.664 787.961 101.18C781.914 95.6484 778.891 87.8438 778.891 77.7656H800.125C800.125 82.7812 801.18 86.4844 803.289 88.875C805.398 91.2656 808.727 92.4609 813.273 92.4609C817.305 92.4609 820.516 91.0781 822.906 88.3125C825.297 85.5469 826.492 81.6094 826.492 76.5V5.625ZM918.742 81.1406C918.742 77.1562 917.336 74.1094 914.523 72C911.711 69.8438 906.648 67.5938 899.336 65.25C892.023 62.8594 886.234 60.5156 881.969 58.2188C870.344 51.9375 864.531 43.4766 864.531 32.8359C864.531 27.3047 866.078 22.3828 869.172 18.0703C872.312 13.7109 876.789 10.3125 882.602 7.875C888.461 5.4375 895.023 4.21875 902.289 4.21875C909.602 4.21875 916.117 5.55469 921.836 8.22656C927.555 10.8516 931.984 14.5781 935.125 19.4062C938.312 24.2344 939.906 29.7188 939.906 35.8594H918.812C918.812 31.1719 917.336 27.5391 914.383 24.9609C911.43 22.3359 907.281 21.0234 901.938 21.0234C896.781 21.0234 892.773 22.125 889.914 24.3281C887.055 26.4844 885.625 29.3437 885.625 32.9062C885.625 36.2344 887.289 39.0234 890.617 41.2734C893.992 43.5234 898.938 45.6328 905.453 47.6016C917.453 51.2109 926.195 55.6875 931.68 61.0312C937.164 66.375 939.906 73.0312 939.906 81C939.906 89.8594 936.555 96.8203 929.852 101.883C923.148 106.898 914.125 109.406 902.781 109.406C894.906 109.406 887.734 107.977 881.266 105.117C874.797 102.211 869.852 98.25 866.43 93.2344C863.055 88.2188 861.367 82.4062 861.367 75.7969H882.531C882.531 87.0938 889.281 92.7422 902.781 92.7422C907.797 92.7422 911.711 91.7344 914.523 89.7188C917.336 87.6562 918.742 84.7969 918.742 81.1406Z" fill="#2AC7E3"/>
</svg>
